<?xml version="1.0" encoding="UTF-8"?>
<!DOCTYPE svg PUBLIC "-//W3C//DTD SVG 1.1//EN" "http://www.w3.org/Graphics/SVG/1.1/DTD/svg11.dtd">
<svg xmlns="http://www.w3.org/2000/svg" version="1.1" width="800px" height="560px" style="shape-rendering:geometricPrecision; text-rendering:geometricPrecision; image-rendering:optimizeQuality; fill-rule:evenodd; clip-rule:evenodd" xmlns:xlink="http://www.w3.org/1999/xlink">
<g><path style="opacity:1" fill="#009b39" d="M -0.5,-0.5 C 266.167,-0.5 532.833,-0.5 799.5,-0.5C 799.5,186.167 799.5,372.833 799.5,559.5C 532.833,559.5 266.167,559.5 -0.5,559.5C -0.5,372.833 -0.5,186.167 -0.5,-0.5 Z"/></g>
<g><path style="opacity:1" fill="#fdde00" d="M 398.5,67.5 C 509.485,137.66 620.152,208.327 730.5,279.5C 620.373,350.402 510.039,421.069 399.5,491.5C 288.997,421.083 178.664,350.416 68.5,279.5C 178.565,208.809 288.565,138.142 398.5,67.5 Z"/></g>
<g><path style="opacity:1" fill="#022776" d="M 538.5,298.5 C 460.457,236.486 371.79,210.819 272.5,221.5C 295.515,174.3 333.182,147.133 385.5,140C 442.914,136.791 487.414,158.957 519,206.5C 535.619,234.98 542.119,265.647 538.5,298.5 Z"/></g>
<g><path style="opacity:1" fill="#f4f8f7" d="M 538.5,298.5 C 537.256,306.48 535.256,314.147 532.5,321.5C 477.55,272.219 412.883,245.052 338.5,240C 324.5,239.333 310.5,239.333 296.5,240C 285.862,241.496 275.196,242.663 264.5,243.5C 265.803,235.585 268.469,228.251 272.5,221.5C 371.79,210.819 460.457,236.486 538.5,298.5 Z"/></g>
<g><path style="opacity:1" fill="#2da753" d="M 307.5,222.5 C 318.361,221.167 321.695,225.333 317.5,235C 314.312,236.316 310.978,236.816 307.5,236.5C 307.5,231.833 307.5,227.167 307.5,222.5 Z"/></g>
<g><path style="opacity:1" fill="#28a44d" d="M 325.5,223.5 C 329.226,223.177 332.893,223.511 336.5,224.5C 333.572,225.484 330.572,225.817 327.5,225.5C 327.5,226.5 327.5,227.5 327.5,228.5C 336.833,229.167 336.833,229.833 327.5,230.5C 327.5,231.5 327.5,232.5 327.5,233.5C 330.5,233.5 333.5,233.5 336.5,233.5C 336.5,234.5 336.5,235.5 336.5,236.5C 332.5,236.5 328.5,236.5 324.5,236.5C 324.927,232.176 325.261,227.842 325.5,223.5 Z"/></g>
<g><path style="opacity:1" fill="#31a854" d="M 290.5,223.5 C 293.85,223.335 297.183,223.502 300.5,224C 303.167,226.333 303.167,228.667 300.5,231C 301.861,232.584 302.528,234.418 302.5,236.5C 301.5,236.5 300.5,236.5 299.5,236.5C 299.5,235.167 299.5,233.833 299.5,232.5C 297.5,232.5 295.5,232.5 293.5,232.5C 293.5,234.167 293.5,235.833 293.5,237.5C 292.5,237.5 291.5,237.5 290.5,237.5C 290.5,232.833 290.5,228.167 290.5,223.5 Z"/></g>
<g><path style="opacity:1" fill="#31a753" d="M 342.5,223.5 C 343.833,223.5 345.167,223.5 346.5,223.5C 346.998,226.487 347.498,229.487 348,232.5C 349,230.167 350,227.833 351,225.5C 352.011,224.663 353.178,224.33 354.5,224.5C 354.579,228.95 353.912,233.283 352.5,237.5C 351.702,235.922 351.202,234.256 351,232.5C 350.313,234.555 349.146,236.221 347.5,237.5C 346.104,235.028 345.27,232.362 345,229.5C 344.503,232.146 344.336,234.813 344.5,237.5C 343.5,237.5 342.5,237.5 341.5,237.5C 341.833,232.833 342.167,228.167 342.5,223.5 Z"/></g>
<g><path style="opacity:1" fill="#26a44d" d="M 276.5,225.5 C 284.845,225.691 287.178,229.524 283.5,237C 275.735,239.575 272.568,236.742 274,228.5C 275.045,227.627 275.878,226.627 276.5,225.5 Z"/></g>
<g><path style="opacity:1" fill="#fbfdfc" d="M 310.5,225.5 C 317.004,225.138 318.671,227.638 315.5,233C 313.866,233.494 312.199,233.66 310.5,233.5C 310.5,230.833 310.5,228.167 310.5,225.5 Z"/></g>
<g><path style="opacity:1" fill="#f2faf5" d="M 292.5,226.5 C 294.924,226.192 297.257,226.526 299.5,227.5C 299.291,228.086 298.957,228.586 298.5,229C 296.527,229.495 294.527,229.662 292.5,229.5C 292.5,228.5 292.5,227.5 292.5,226.5 Z"/></g>
<g><path style="opacity:1" fill="#ebf7ef" d="M 277.5,227.5 C 281.976,227.822 283.476,230.156 282,234.5C 278.974,236.916 276.807,236.083 275.5,232C 276.044,230.415 276.711,228.915 277.5,227.5 Z"/></g>
<g><path style="opacity:1" fill="#2fa753" d="M 370.5,228.5 C 374.013,228.307 377.346,228.974 380.5,230.5C 378.167,231.167 375.833,231.833 373.5,232.5C 379.995,234.387 379.662,235.387 372.5,235.5C 372.5,236.5 372.5,237.5 372.5,238.5C 375.157,238.162 377.49,238.829 379.5,240.5C 376.205,241.401 372.872,241.401 369.5,240.5C 369.833,236.5 370.167,232.5 370.5,228.5 Z"/></g>
<g><path style="opacity:1" fill="#31a854" d="M 397.5,232.5 C 401.327,232.387 404.827,233.387 408,235.5C 408.896,238.025 408.396,240.192 406.5,242C 403.525,242.044 400.525,241.877 397.5,241.5C 397.5,242.833 397.5,244.167 397.5,245.5C 396.5,245.5 395.5,245.5 394.5,245.5C 395.656,241.207 396.656,236.874 397.5,232.5 Z"/></g>
<g><path style="opacity:1" fill="#e1e5ef" d="M 442.5,230.5 C 443.401,232.757 445.068,234.257 447.5,235C 446.643,235.689 445.977,236.522 445.5,237.5C 446.478,240.996 445.644,241.33 443,238.5C 440.04,241.394 439.206,241.061 440.5,237.5C 440.023,236.522 439.357,235.689 438.5,235C 441.072,234.568 442.406,233.068 442.5,230.5 Z"/></g>
<g><path style="opacity:1" fill="#f1f9f4" d="M 399.5,235.5 C 401.5,235.833 403.5,236.167 405.5,236.5C 405.5,237.5 405.5,238.5 405.5,239.5C 401.759,240.401 399.759,239.068 399.5,235.5 Z"/></g>
<g><path style="opacity:1" fill="#2da650" d="M 414.5,237.5 C 418.327,237.387 421.827,238.387 425,240.5C 424.045,244.369 423.211,248.369 422.5,252.5C 421.325,252.719 420.325,252.386 419.5,251.5C 421.117,247.756 419.783,245.756 415.5,245.5C 414.5,246.833 413.5,248.167 412.5,249.5C 412.167,248.833 411.833,248.167 411.5,247.5C 412.506,244.149 413.506,240.816 414.5,237.5 Z"/></g>
<g><path style="opacity:1" fill="#022776" d="M 532.5,321.5 C 513.887,375.272 476.554,407.439 420.5,418C 357.812,424.238 309.979,400.738 277,347.5C 259.604,314.263 255.437,279.596 264.5,243.5C 275.196,242.663 285.862,241.496 296.5,240C 310.5,239.333 324.5,239.333 338.5,240C 412.883,245.052 477.55,272.219 532.5,321.5 Z"/></g>
<g><path style="opacity:1" fill="#f0f9f3" d="M 416.5,240.5 C 419.969,239.887 421.969,241.221 422.5,244.5C 419.031,245.113 417.031,243.779 416.5,240.5 Z"/></g>
<g><path style="opacity:1" fill="#2aa54d" d="M 433.5,243.5 C 439.133,243.961 441.633,246.961 441,252.5C 437.961,256.839 434.295,257.506 430,254.5C 428.663,249.872 429.83,246.205 433.5,243.5 Z"/></g>
<g><path style="opacity:1" fill="#f2faf5" d="M 433.5,246.5 C 438.068,246.083 439.568,248.083 438,252.5C 434.828,255.388 432.661,254.722 431.5,250.5C 431.752,248.927 432.418,247.594 433.5,246.5 Z"/></g>
<g><path style="opacity:1" fill="#e5e8f1" d="M 284.5,248.5 C 285.495,251.181 287.495,252.681 290.5,253C 289.584,253.374 288.75,253.874 288,254.5C 288.263,255.951 288.096,257.284 287.5,258.5C 285.958,257.253 284.458,257.253 283,258.5C 283.054,255.809 281.887,253.976 279.5,253C 282.901,253.266 284.567,251.766 284.5,248.5 Z"/></g>
<g><path style="opacity:1" fill="#2ba650" d="M 448.5,250.5 C 453.093,249.418 456.093,251.085 457.5,255.5C 457,255.833 456.5,256.167 456,256.5C 454.669,255.004 453.169,253.671 451.5,252.5C 447.838,254.003 446.838,256.503 448.5,260C 449.833,260.667 451.167,260.667 452.5,260C 451.007,258.844 451.174,258.01 453,257.5C 454.621,257.725 455.788,258.558 456.5,260C 455.409,261.762 454.409,263.596 453.5,265.5C 445.012,262.711 443.345,257.711 448.5,250.5 Z"/></g>
<g><path style="opacity:1" fill="#2ba650" d="M 464.5,255.5 C 467.553,256.777 470.386,258.444 473,260.5C 473.667,262.167 473.667,263.833 473,265.5C 470.977,267.54 469.31,269.873 468,272.5C 467.5,272 467,271.5 466.5,271C 468.275,267.629 467.275,265.462 463.5,264.5C 462.108,265.605 460.941,266.939 460,268.5C 459.5,268 459,267.5 458.5,267C 460.64,263.219 462.64,259.385 464.5,255.5 Z"/></g>
<g><path style="opacity:1" fill="#eef8f1" d="M 464.5,259.5 C 466.308,259.491 467.975,259.991 469.5,261C 470.731,262.183 470.731,263.349 469.5,264.5C 466.594,263.913 464.928,262.246 464.5,259.5 Z"/></g>
<g><path style="opacity:1" fill="#25a44c" d="M 479.5,263.5 C 483.145,264.989 486.478,266.989 489.5,269.5C 486.693,270.137 484.027,269.471 481.5,267.5C 480.692,267.808 480.025,268.308 479.5,269C 481.717,270.268 483.717,271.768 485.5,273.5C 485.167,273.833 484.833,274.167 484.5,274.5C 482.571,273.62 480.737,272.62 479,271.5C 477.831,272.009 476.998,272.842 476.5,274C 478.996,275.08 481.33,276.414 483.5,278C 484.711,278.893 484.711,279.726 483.5,280.5C 480.006,278.921 476.673,277.087 473.5,275C 475.653,271.192 477.653,267.358 479.5,263.5 Z"/></g>
<g><path style="opacity:1" fill="#dee3ed" d="M 437.5,268.5 C 438.186,269.848 439.186,271.015 440.5,272C 439.809,273.067 439.309,274.234 439,275.5C 438,274.167 437,274.167 436,275.5C 435.691,274.234 435.191,273.067 434.5,272C 436.056,271.28 437.056,270.113 437.5,268.5 Z"/></g>
<g><path style="opacity:1" fill="#2da651" d="M 493.5,274.5 C 497.684,273.704 500.85,275.037 503,278.5C 503.749,279.635 503.583,280.635 502.5,281.5C 501.059,280.135 499.726,278.635 498.5,277C 497.517,276.409 496.85,276.743 496.5,278C 497.27,279.775 498.437,281.275 500,282.5C 501.583,287.1 500.083,288.934 495.5,288C 491.759,286.5 490.093,284 490.5,280.5C 491.941,281.865 493.274,283.365 494.5,285C 495.635,285.749 496.635,285.583 497.5,284.5C 495.588,282.343 493.921,280.009 492.5,277.5C 493.127,276.583 493.461,275.583 493.5,274.5 Z"/></g>
<g><path style="opacity:1" fill="#dee2ed" d="M 345.5,280.5 C 346.427,282.576 348.093,283.743 350.5,284C 349.107,285.171 348.273,286.671 348,288.5C 346.887,287.289 345.72,287.289 344.5,288.5C 343.859,286.704 342.859,285.204 341.5,284C 342.793,283.51 344.127,283.343 345.5,283.5C 345.5,282.5 345.5,281.5 345.5,280.5 Z"/></g>
<g><path style="opacity:1" fill="#30a752" d="M 509.5,283.5 C 514.898,283.877 517.232,286.544 516.5,291.5C 515.05,290.345 514.05,288.845 513.5,287C 512.365,286.251 511.365,286.417 510.5,287.5C 512.555,289.555 514.221,291.888 515.5,294.5C 513.299,299.253 510.299,299.753 506.5,296C 504.604,294.192 504.104,292.025 505,289.5C 506.849,291.047 508.349,292.881 509.5,295C 510.483,295.591 511.15,295.257 511.5,294C 509.767,291.924 508.434,289.591 507.5,287C 507.978,285.697 508.645,284.531 509.5,283.5 Z"/></g>
<g><path style="opacity:1" fill="#35a956" d="M 523.5,294.5 C 529.33,294.161 531.83,296.827 531,302.5C 527.819,308.252 523.819,308.919 519,304.5C 518.077,300.017 519.577,296.683 523.5,294.5 Z"/></g>
<g><path style="opacity:1" fill="#f8fcf9" d="M 523.5,297.5 C 527.677,296.842 529.177,298.508 528,302.5C 526.211,304.229 524.044,304.896 521.5,304.5C 521.166,301.812 521.832,299.479 523.5,297.5 Z"/></g>
<g><path style="opacity:1" fill="#dde1ec" d="M 398.5,297.5 C 400.048,297.821 400.715,298.821 400.5,300.5C 401.552,300.351 402.552,300.517 403.5,301C 401.699,302.387 401.032,303.887 401.5,305.5C 399.865,304.67 398.198,304.503 396.5,305C 397.727,303.413 397.394,302.079 395.5,301C 396.448,300.517 397.448,300.351 398.5,300.5C 398.5,299.5 398.5,298.5 398.5,297.5 Z"/></g>
<g><path style="opacity:1" fill="#d4dae7" d="M 310.5,302.5 C 314.063,304.124 313.73,305.457 309.5,306.5C 309.433,305.041 309.766,303.708 310.5,302.5 Z"/></g>
<g><path style="opacity:1" fill="#eceff5" d="M 297.5,307.5 C 298.434,308.568 298.768,309.901 298.5,311.5C 299.873,311.343 301.207,311.51 302.5,312C 300.996,313.491 300.163,315.324 300,317.5C 298.333,314.833 296.667,314.833 295,317.5C 296.26,314.845 295.426,313.012 292.5,312C 293.793,311.51 295.127,311.343 296.5,311.5C 296.433,310.041 296.766,308.708 297.5,307.5 Z"/></g>
<g><path style="opacity:1" fill="#d0d6e5" d="M 415.5,309.5 C 416.404,310.209 416.737,311.209 416.5,312.5C 421.421,312.135 421.755,313.135 417.5,315.5C 418.847,319.11 418.18,319.443 415.5,316.5C 414.914,316.709 414.414,317.043 414,317.5C 413.56,315.924 412.727,314.59 411.5,313.5C 413.421,312.676 414.754,311.343 415.5,309.5 Z"/></g>
<g><path style="opacity:1" fill="#e5e9f1" d="M 384.5,311.5 C 385.683,312.504 387.016,313.338 388.5,314C 387.809,315.067 387.309,316.234 387,317.5C 386,316.167 385,316.167 384,317.5C 383.691,316.234 383.191,315.067 382.5,314C 383.756,313.583 384.423,312.75 384.5,311.5 Z"/></g>
<g><path style="opacity:1" fill="#dadfeb" d="M 279.5,321.5 C 281.048,321.821 281.715,322.821 281.5,324.5C 285.056,324.275 285.39,325.108 282.5,327C 283.291,328.101 283.291,328.934 282.5,329.5C 280.765,328.943 279.098,328.61 277.5,328.5C 279.022,326.844 278.689,325.677 276.5,325C 277.448,324.517 278.448,324.351 279.5,324.5C 279.5,323.5 279.5,322.5 279.5,321.5 Z"/></g>
<g><path style="opacity:1" fill="#e2e6ef" d="M 391.5,322.5 C 394.674,322.952 395.007,323.952 392.5,325.5C 390.481,324.867 390.147,323.867 391.5,322.5 Z"/></g>
<g><path style="opacity:1" fill="#e2e6ef" d="M 326.5,322.5 C 327.404,323.209 327.737,324.209 327.5,325.5C 332.22,325.225 332.554,326.059 328.5,328C 329.711,328.893 329.711,329.726 328.5,330.5C 327.28,329.289 326.113,329.289 325,330.5C 324.727,328.671 323.893,327.171 322.5,326C 324.55,325.584 325.884,324.417 326.5,322.5 Z"/></g>
<g><path style="opacity:1" fill="#e1e5ef" d="M 496.5,323.5 C 498.048,323.821 498.715,324.821 498.5,326.5C 499.873,326.343 501.207,326.51 502.5,327C 500.615,329.078 499.949,331.245 500.5,333.5C 498.684,331.559 496.684,330.892 494.5,331.5C 495.647,329.415 494.98,327.915 492.5,327C 493.793,326.51 495.127,326.343 496.5,326.5C 496.5,325.5 496.5,324.5 496.5,323.5 Z"/></g>
<g><path style="opacity:1" fill="#d8dde9" d="M 516.5,326.5 C 517.534,327.687 518.867,328.52 520.5,329C 519.833,329.667 519.167,330.333 518.5,331C 519.673,334.11 519.173,334.277 517,331.5C 516.667,331.833 516.333,332.167 516,332.5C 515.535,331.069 514.701,329.903 513.5,329C 515.119,328.764 516.119,327.931 516.5,326.5 Z"/></g>
<g><path style="opacity:1" fill="#e2e6ef" d="M 502.5,336.5 C 503.743,338.164 505.41,339.331 507.5,340C 506.107,341.171 505.273,342.671 505,344.5C 503.887,343.289 502.72,343.289 501.5,344.5C 500.289,343.726 500.289,342.893 501.5,342C 498.668,340.092 499.001,339.259 502.5,339.5C 502.5,338.5 502.5,337.5 502.5,336.5 Z"/></g>
<g><path style="opacity:1" fill="#d9deeb" d="M 321.5,337.5 C 322.931,338.082 324.264,338.915 325.5,340C 324.663,341.011 324.33,342.178 324.5,343.5C 323.167,343.5 321.833,343.5 320.5,343.5C 320.67,342.178 320.337,341.011 319.5,340C 320.756,339.583 321.423,338.75 321.5,337.5 Z"/></g>
<g><path style="opacity:1" fill="#e6e9f1" d="M 398.5,337.5 C 400.048,337.821 400.715,338.821 400.5,340.5C 401.873,340.343 403.207,340.51 404.5,341C 402.996,342.491 402.163,344.324 402,346.5C 400.333,345.167 398.667,345.167 397,346.5C 396.837,344.324 396.004,342.491 394.5,341C 395.793,340.51 397.127,340.343 398.5,340.5C 398.5,339.5 398.5,338.5 398.5,337.5 Z"/></g>
<g><path style="opacity:1" fill="#dee2ed" d="M 494.5,347.5 C 495.404,348.209 495.737,349.209 495.5,350.5C 500.22,350.225 500.554,351.059 496.5,353C 497.982,356.757 497.316,357.257 494.5,354.5C 493.914,354.709 493.414,355.043 493,355.5C 492.727,353.671 491.893,352.171 490.5,351C 492.55,350.584 493.884,349.417 494.5,347.5 Z"/></g>
<g><path style="opacity:1" fill="#d9deeb" d="M 342.5,348.5 C 343.98,350.412 345.98,351.579 348.5,352C 347.5,353 346.5,354 345.5,355C 346.982,358.757 346.316,359.257 343.5,356.5C 340.462,359.475 339.462,359.142 340.5,355.5C 339.99,353.912 338.99,352.745 337.5,352C 339.134,351.506 340.801,351.34 342.5,351.5C 342.5,350.5 342.5,349.5 342.5,348.5 Z"/></g>
<g><path style="opacity:1" fill="#d4d9e7" d="M 468.5,353.5 C 469.534,354.687 470.867,355.52 472.5,356C 471.929,357.205 471.262,358.372 470.5,359.5C 469.268,358.855 467.935,358.689 466.5,359C 467.815,357.605 467.481,356.605 465.5,356C 467.119,355.764 468.119,354.931 468.5,353.5 Z"/></g>
<g><path style="opacity:1" fill="#dce1ec" d="M 429.5,354.5 C 430.683,355.504 432.016,356.338 433.5,357C 432.663,358.011 432.33,359.178 432.5,360.5C 431.167,360.5 429.833,360.5 428.5,360.5C 428.64,358.876 427.973,357.71 426.5,357C 428.119,356.764 429.119,355.931 429.5,354.5 Z"/></g>
<g><path style="opacity:1" fill="#dee2ed" d="M 452.5,358.5 C 453.683,359.504 455.016,360.338 456.5,361C 455.809,362.067 455.309,363.234 455,364.5C 454,363.167 453,363.167 452,364.5C 451.691,363.234 451.191,362.067 450.5,361C 451.756,360.583 452.423,359.75 452.5,358.5 Z"/></g>
<g><path style="opacity:1" fill="#cbd2e3" d="M 482.5,356.5 C 488.368,357.697 488.201,359.697 482,362.5C 481.727,360.671 480.893,359.171 479.5,358C 480.737,357.768 481.737,357.268 482.5,356.5 Z"/></g>
<g><path style="opacity:1" fill="#dce1ec" d="M 469.5,365.5 C 470.404,366.209 470.737,367.209 470.5,368.5C 474.099,368.262 474.433,369.262 471.5,371.5C 472.847,375.11 472.18,375.443 469.5,372.5C 466.82,375.443 466.153,375.11 467.5,371.5C 467.023,370.522 466.357,369.689 465.5,369C 467.55,368.584 468.884,367.417 469.5,365.5 Z"/></g>
<g><path style="opacity:1" fill="#e1e5ee" d="M 440.5,369.5 C 441.743,371.164 443.41,372.331 445.5,373C 443.408,373.953 443.075,375.286 444.5,377C 442.62,376.49 440.787,376.657 439,377.5C 438.508,376.451 438.674,375.451 439.5,374.5C 436.869,372.995 437.203,372.329 440.5,372.5C 440.5,371.5 440.5,370.5 440.5,369.5 Z"/></g>
<g><path style="opacity:1" fill="#e2e6ef" d="M 468.5,381.5 C 469.683,382.504 471.016,383.338 472.5,384C 471.809,385.067 471.309,386.234 471,387.5C 470,386.167 469,386.167 468,387.5C 467.691,386.234 467.191,385.067 466.5,384C 467.756,383.583 468.423,382.75 468.5,381.5 Z"/></g>
<g><path style="opacity:1" fill="#c7cfe1" d="M 398.5,387.5 C 400.465,387.948 400.798,388.948 399.5,390.5C 398.614,389.675 398.281,388.675 398.5,387.5 Z"/></g>
</svg>
