<?xml version="1.0" encoding="UTF-8"?>
<!DOCTYPE svg PUBLIC "-//W3C//DTD SVG 1.1//EN" "http://www.w3.org/Graphics/SVG/1.1/DTD/svg11.dtd">
<svg xmlns="http://www.w3.org/2000/svg" version="1.1" width="800px" height="421px" style="shape-rendering:geometricPrecision; text-rendering:geometricPrecision; image-rendering:optimizeQuality; fill-rule:evenodd; clip-rule:evenodd" xmlns:xlink="http://www.w3.org/1999/xlink">
<g><path style="opacity:1" fill="#3d3c6e" d="M -0.5,-0.5 C 106.167,-0.5 212.833,-0.5 319.5,-0.5C 319.5,10.1667 319.5,20.8333 319.5,31.5C 319.5,42.5 319.5,53.5 319.5,64.5C 319.5,75.1667 319.5,85.8333 319.5,96.5C 319.5,107.5 319.5,118.5 319.5,129.5C 319.5,140.167 319.5,150.833 319.5,161.5C 319.5,172.167 319.5,182.833 319.5,193.5C 319.5,204.5 319.5,215.5 319.5,226.5C 212.833,226.5 106.167,226.5 -0.5,226.5C -0.5,150.833 -0.5,75.1667 -0.5,-0.5 Z"/></g>
<g><path style="opacity:1" fill="#b12233" d="M 319.5,-0.5 C 479.5,-0.5 639.5,-0.5 799.5,-0.5C 799.5,10.1667 799.5,20.8333 799.5,31.5C 639.5,31.5 479.5,31.5 319.5,31.5C 319.5,20.8333 319.5,10.1667 319.5,-0.5 Z"/></g>
<g><path style="opacity:1" fill="#f3f3f6" d="M 15.5,19.5 C 18.1667,18.8333 20.8333,18.1667 23.5,17.5C 25.5512,7.11648 27.2179,7.44981 28.5,18.5C 31.5184,18.3354 34.5184,18.502 37.5,19C 34.9979,20.3375 32.9979,22.1708 31.5,24.5C 32.5533,27.1314 33.0533,29.798 33,32.5C 31.1038,30.4701 28.9371,28.8034 26.5,27.5C 23.864,28.9705 21.364,30.6372 19,32.5C 19.199,29.5609 20.0323,26.7276 21.5,24C 19.6491,22.2476 17.6491,20.7476 15.5,19.5 Z"/></g>
<g><path style="opacity:1" fill="#f4f4f7" d="M 135.5,17.5 C 138.167,18.1667 140.833,18.8333 143.5,19.5C 141.351,20.7476 139.351,22.2476 137.5,24C 138.968,26.7276 139.801,29.5609 140,32.5C 137.656,30.8187 135.323,29.152 133,27.5C 130.332,28.6702 127.998,30.3368 126,32.5C 125.947,29.798 126.447,27.1314 127.5,24.5C 126.002,22.1708 124.002,20.3375 121.5,19C 124.482,18.502 127.482,18.3354 130.5,18.5C 131.782,7.44981 133.449,7.11648 135.5,17.5 Z"/></g>
<g><path style="opacity:1" fill="#f3f3f6" d="M 175.5,19.5 C 178.167,18.8333 180.833,18.1667 183.5,17.5C 185.551,7.11648 187.218,7.44981 188.5,18.5C 191.518,18.3354 194.518,18.502 197.5,19C 194.998,20.3375 192.998,22.1708 191.5,24.5C 192.553,27.1314 193.053,29.798 193,32.5C 191.104,30.4701 188.937,28.8034 186.5,27.5C 183.864,28.9705 181.364,30.6372 179,32.5C 179.199,29.5609 180.032,26.7276 181.5,24C 179.649,22.2476 177.649,20.7476 175.5,19.5 Z"/></g>
<g><path style="opacity:1" fill="#f4f4f7" d="M 295.5,17.5 C 298.167,18.1667 300.833,18.8333 303.5,19.5C 301.351,20.7476 299.351,22.2476 297.5,24C 298.968,26.7276 299.801,29.5609 300,32.5C 297.656,30.8187 295.323,29.152 293,27.5C 290.332,28.6702 287.998,30.3368 286,32.5C 285.947,29.798 286.447,27.1314 287.5,24.5C 286.002,22.1708 284.002,20.3375 281.5,19C 284.482,18.502 287.482,18.3354 290.5,18.5C 291.782,7.44981 293.449,7.11648 295.5,17.5 Z"/></g>
<g><path style="opacity:1" fill="#f2f2f5" d="M 82.5,17.5 C 85.1667,18.1667 87.8333,18.8333 90.5,19.5C 88.1217,20.6924 86.1217,22.359 84.5,24.5C 85.961,26.8109 86.2943,29.1442 85.5,31.5C 83.7721,29.7745 81.7721,28.4411 79.5,27.5C 76.9906,28.9213 74.6572,30.5879 72.5,32.5C 72.4242,29.9783 73.0909,27.3117 74.5,24.5C 73.0892,22.086 71.0892,20.4194 68.5,19.5C 71.1667,18.8333 73.8333,18.1667 76.5,17.5C 78.5,8.16667 80.5,8.16667 82.5,17.5 Z"/></g>
<g><path style="opacity:1" fill="#f2f2f5" d="M 242.5,17.5 C 245.167,18.1667 247.833,18.8333 250.5,19.5C 248.122,20.6924 246.122,22.359 244.5,24.5C 245.961,26.8109 246.294,29.1442 245.5,31.5C 243.772,29.7745 241.772,28.4411 239.5,27.5C 236.991,28.9213 234.657,30.5879 232.5,32.5C 232.424,29.9783 233.091,27.3117 234.5,24.5C 233.089,22.086 231.089,20.4194 228.5,19.5C 231.167,18.8333 233.833,18.1667 236.5,17.5C 238.5,8.16667 240.5,8.16667 242.5,17.5 Z"/></g>
<g><path style="opacity:1" fill="#8180a1" d="M 23.5,17.5 C 20.8333,18.1667 18.1667,18.8333 15.5,19.5C 14.9569,19.44 14.6236,19.1067 14.5,18.5C 17.4281,17.5159 20.4281,17.1826 23.5,17.5 Z"/></g>
<g><path style="opacity:1" fill="#7b7a9c" d="M 76.5,17.5 C 73.8333,18.1667 71.1667,18.8333 68.5,19.5C 67.9569,19.44 67.6236,19.1067 67.5,18.5C 70.4281,17.5159 73.4281,17.1826 76.5,17.5 Z"/></g>
<g><path style="opacity:1" fill="#7b7b9d" d="M 82.5,17.5 C 85.5719,17.1826 88.5719,17.5159 91.5,18.5C 91.3764,19.1067 91.0431,19.44 90.5,19.5C 87.8333,18.8333 85.1667,18.1667 82.5,17.5 Z"/></g>
<g><path style="opacity:1" fill="#8281a2" d="M 135.5,17.5 C 138.572,17.1826 141.572,17.5159 144.5,18.5C 144.376,19.1067 144.043,19.44 143.5,19.5C 140.833,18.8333 138.167,18.1667 135.5,17.5 Z"/></g>
<g><path style="opacity:1" fill="#8180a1" d="M 183.5,17.5 C 180.833,18.1667 178.167,18.8333 175.5,19.5C 174.957,19.44 174.624,19.1067 174.5,18.5C 177.428,17.5159 180.428,17.1826 183.5,17.5 Z"/></g>
<g><path style="opacity:1" fill="#7b7a9c" d="M 236.5,17.5 C 233.833,18.1667 231.167,18.8333 228.5,19.5C 227.957,19.44 227.624,19.1067 227.5,18.5C 230.428,17.5159 233.428,17.1826 236.5,17.5 Z"/></g>
<g><path style="opacity:1" fill="#7b7b9d" d="M 242.5,17.5 C 245.572,17.1826 248.572,17.5159 251.5,18.5C 251.376,19.1067 251.043,19.44 250.5,19.5C 247.833,18.8333 245.167,18.1667 242.5,17.5 Z"/></g>
<g><path style="opacity:1" fill="#8281a2" d="M 295.5,17.5 C 298.572,17.1826 301.572,17.5159 304.5,18.5C 304.376,19.1067 304.043,19.44 303.5,19.5C 300.833,18.8333 298.167,18.1667 295.5,17.5 Z"/></g>
<g><path style="opacity:1" fill="#fdfafb" d="M 319.5,31.5 C 479.5,31.5 639.5,31.5 799.5,31.5C 799.5,42.5 799.5,53.5 799.5,64.5C 639.5,64.5 479.5,64.5 319.5,64.5C 319.5,53.5 319.5,42.5 319.5,31.5 Z"/></g>
<g><path style="opacity:1" fill="#edecf1" d="M 52.5,32.5 C 54.2671,34.7916 55.2671,37.4582 55.5,40.5C 58.5184,40.3354 61.5184,40.502 64.5,41C 61.948,42.7714 59.6147,44.7714 57.5,47C 58.9739,49.7441 59.8073,52.5774 60,55.5C 58.0016,53.3368 55.6682,51.6702 53,50.5C 50.4467,51.2229 48.28,52.5562 46.5,54.5C 46.1667,54.1667 45.8333,53.8333 45.5,53.5C 46.9597,50.9711 47.4597,48.3044 47,45.5C 44.8333,44 42.6667,42.5 40.5,41C 43.8168,40.5017 47.1501,40.335 50.5,40.5C 50.5597,37.6592 51.2264,34.9925 52.5,32.5 Z"/></g>
<g><path style="opacity:1" fill="#edecf1" d="M 212.5,32.5 C 214.267,34.7916 215.267,37.4582 215.5,40.5C 218.518,40.3354 221.518,40.502 224.5,41C 221.948,42.7714 219.615,44.7714 217.5,47C 218.974,49.7441 219.807,52.5774 220,55.5C 218.002,53.3368 215.668,51.6702 213,50.5C 210.447,51.2229 208.28,52.5562 206.5,54.5C 206.167,54.1667 205.833,53.8333 205.5,53.5C 206.96,50.9711 207.46,48.3044 207,45.5C 204.833,44 202.667,42.5 200.5,41C 203.817,40.5017 207.15,40.335 210.5,40.5C 210.56,37.6592 211.226,34.9925 212.5,32.5 Z"/></g>
<g><path style="opacity:1" fill="#eeeef2" d="M 105.5,32.5 C 107.655,34.6174 108.655,37.284 108.5,40.5C 111.85,40.335 115.183,40.5017 118.5,41C 116.333,42.5 114.167,44 112,45.5C 111.54,48.3044 112.04,50.9711 113.5,53.5C 113.167,53.8333 112.833,54.1667 112.5,54.5C 110.72,52.5562 108.553,51.2229 106,50.5C 103.845,51.5792 101.845,52.9126 100,54.5C 99.4574,51.8302 99.9574,49.3302 101.5,47C 99.3853,44.7714 97.052,42.7714 94.5,41C 97.4816,40.502 100.482,40.3354 103.5,40.5C 103.963,37.779 104.629,35.1123 105.5,32.5 Z"/></g>
<g><path style="opacity:1" fill="#eeeef2" d="M 265.5,32.5 C 267.655,34.6174 268.655,37.284 268.5,40.5C 271.85,40.335 275.183,40.5017 278.5,41C 276.333,42.5 274.167,44 272,45.5C 271.54,48.3044 272.04,50.9711 273.5,53.5C 273.167,53.8333 272.833,54.1667 272.5,54.5C 270.72,52.5562 268.553,51.2229 266,50.5C 263.845,51.5792 261.845,52.9126 260,54.5C 259.457,51.8302 259.957,49.3302 261.5,47C 259.385,44.7714 257.052,42.7714 254.5,41C 257.482,40.502 260.482,40.3354 263.5,40.5C 263.963,37.779 264.629,35.1123 265.5,32.5 Z"/></g>
<g><path style="opacity:1" fill="#ededf1" d="M 158.5,32.5 C 160.555,34.2339 161.888,36.5672 162.5,39.5C 165.447,40.3214 168.447,40.8214 171.5,41C 168.852,42.6492 166.519,44.6492 164.5,47C 165.654,49.4369 166.154,51.9369 166,54.5C 163.942,52.9317 161.775,51.5983 159.5,50.5C 157.225,51.5983 155.058,52.9317 153,54.5C 152.846,51.9369 153.346,49.4369 154.5,47C 152.481,44.6492 150.148,42.6492 147.5,41C 154.565,42.1789 158.231,39.3455 158.5,32.5 Z"/></g>
<g><path style="opacity:1" fill="#f2f2f5" d="M 25.5,55.5 C 27.6545,57.6174 28.6545,60.284 28.5,63.5C 31.5184,63.3354 34.5184,63.502 37.5,64C 35.7585,65.6196 33.9252,67.1196 32,68.5C 32.3333,71.5 32.6667,74.5 33,77.5C 30.6667,75.8333 28.3333,74.1667 26,72.5C 18.5001,79.8279 17.0001,78.8279 21.5,69.5C 19.3345,67.5067 17.0011,65.6733 14.5,64C 17.4816,63.502 20.4816,63.3354 23.5,63.5C 23.9628,60.779 24.6295,58.1123 25.5,55.5 Z"/></g>
<g><path style="opacity:1" fill="#f1f1f4" d="M 132.5,55.5 C 134.267,57.7916 135.267,60.4582 135.5,63.5C 138.518,63.3354 141.518,63.502 144.5,64C 142.023,65.6427 139.69,67.476 137.5,69.5C 142,78.8279 140.5,79.8279 133,72.5C 130.667,74.1667 128.333,75.8333 126,77.5C 125.846,74.9369 126.346,72.4369 127.5,70C 125.993,67.5655 123.993,65.5655 121.5,64C 124.482,63.502 127.482,63.3354 130.5,63.5C 130.56,60.6592 131.226,57.9925 132.5,55.5 Z"/></g>
<g><path style="opacity:1" fill="#f2f2f5" d="M 185.5,55.5 C 187.655,57.6174 188.655,60.284 188.5,63.5C 191.518,63.3354 194.518,63.502 197.5,64C 195.759,65.6196 193.925,67.1196 192,68.5C 192.333,71.5 192.667,74.5 193,77.5C 190.667,75.8333 188.333,74.1667 186,72.5C 178.5,79.8279 177,78.8279 181.5,69.5C 179.334,67.5067 177.001,65.6733 174.5,64C 177.482,63.502 180.482,63.3354 183.5,63.5C 183.963,60.779 184.629,58.1123 185.5,55.5 Z"/></g>
<g><path style="opacity:1" fill="#f1f1f4" d="M 292.5,55.5 C 294.267,57.7916 295.267,60.4582 295.5,63.5C 298.518,63.3354 301.518,63.502 304.5,64C 302.023,65.6427 299.69,67.476 297.5,69.5C 302,78.8279 300.5,79.8279 293,72.5C 290.667,74.1667 288.333,75.8333 286,77.5C 285.846,74.9369 286.346,72.4369 287.5,70C 285.993,67.5655 283.993,65.5655 281.5,64C 284.482,63.502 287.482,63.3354 290.5,63.5C 290.56,60.6592 291.226,57.9925 292.5,55.5 Z"/></g>
<g><path style="opacity:1" fill="#f2f2f6" d="M 78.5,55.5 C 80.5549,57.2339 81.8882,59.5672 82.5,62.5C 85.4465,63.3214 88.4465,63.8214 91.5,64C 89.3333,65.5 87.1667,67 85,68.5C 85.6232,71.4368 85.9565,74.4368 86,77.5C 83.7432,75.9544 81.5765,74.2877 79.5,72.5C 77.4235,74.2877 75.2568,75.9544 73,77.5C 72.5403,74.6956 73.0403,72.0289 74.5,69.5C 72.3345,67.5067 70.0011,65.6733 67.5,64C 74.5648,65.1789 78.2315,62.3455 78.5,55.5 Z"/></g>
<g><path style="opacity:1" fill="#f2f2f6" d="M 238.5,55.5 C 240.555,57.2339 241.888,59.5672 242.5,62.5C 245.447,63.3214 248.447,63.8214 251.5,64C 249.333,65.5 247.167,67 245,68.5C 245.623,71.4368 245.957,74.4368 246,77.5C 243.743,75.9544 241.576,74.2877 239.5,72.5C 237.424,74.2877 235.257,75.9544 233,77.5C 232.54,74.6956 233.04,72.0289 234.5,69.5C 232.334,67.5067 230.001,65.6733 227.5,64C 234.565,65.1789 238.231,62.3455 238.5,55.5 Z"/></g>
<g><path style="opacity:1" fill="#b12233" d="M 319.5,64.5 C 479.5,64.5 639.5,64.5 799.5,64.5C 799.5,75.1667 799.5,85.8333 799.5,96.5C 639.5,96.5 479.5,96.5 319.5,96.5C 319.5,85.8333 319.5,75.1667 319.5,64.5 Z"/></g>
<g><path style="opacity:1" fill="#f4f4f7" d="M 55.5,85.5 C 58.1667,86.1667 60.8333,86.8333 63.5,87.5C 61.3509,88.7476 59.3509,90.2476 57.5,92C 58.9677,94.7276 59.801,97.5609 60,100.5C 57.656,98.8187 55.3227,97.152 53,95.5C 50.3318,96.6702 47.9984,98.3368 46,100.5C 45.9467,97.798 46.4467,95.1314 47.5,92.5C 46.0021,90.1708 44.0021,88.3375 41.5,87C 44.4816,86.502 47.4816,86.3354 50.5,86.5C 51.7821,75.4498 53.4488,75.1165 55.5,85.5 Z"/></g>
<g><path style="opacity:1" fill="#f3f3f6" d="M 95.5,87.5 C 98.1667,86.8333 100.833,86.1667 103.5,85.5C 105.551,75.1165 107.218,75.4498 108.5,86.5C 111.518,86.3354 114.518,86.502 117.5,87C 114.998,88.3375 112.998,90.1708 111.5,92.5C 112.553,95.1314 113.053,97.798 113,100.5C 111.104,98.4701 108.937,96.8034 106.5,95.5C 103.864,96.9705 101.364,98.6372 99,100.5C 99.199,97.5609 100.032,94.7276 101.5,92C 99.6491,90.2476 97.6491,88.7476 95.5,87.5 Z"/></g>
<g><path style="opacity:1" fill="#f4f4f7" d="M 215.5,85.5 C 218.167,86.1667 220.833,86.8333 223.5,87.5C 221.351,88.7476 219.351,90.2476 217.5,92C 218.968,94.7276 219.801,97.5609 220,100.5C 217.656,98.8187 215.323,97.152 213,95.5C 210.332,96.6702 207.998,98.3368 206,100.5C 205.947,97.798 206.447,95.1314 207.5,92.5C 206.002,90.1708 204.002,88.3375 201.5,87C 204.482,86.502 207.482,86.3354 210.5,86.5C 211.782,75.4498 213.449,75.1165 215.5,85.5 Z"/></g>
<g><path style="opacity:1" fill="#f3f3f6" d="M 255.5,87.5 C 258.167,86.8333 260.833,86.1667 263.5,85.5C 265.551,75.1165 267.218,75.4498 268.5,86.5C 271.518,86.3354 274.518,86.502 277.5,87C 274.998,88.3375 272.998,90.1708 271.5,92.5C 272.553,95.1314 273.053,97.798 273,100.5C 271.104,98.4701 268.937,96.8034 266.5,95.5C 263.864,96.9705 261.364,98.6372 259,100.5C 259.199,97.5609 260.032,94.7276 261.5,92C 259.649,90.2476 257.649,88.7476 255.5,87.5 Z"/></g>
<g><path style="opacity:1" fill="#f2f2f5" d="M 162.5,85.5 C 165.167,86.1667 167.833,86.8333 170.5,87.5C 168.122,88.6924 166.122,90.359 164.5,92.5C 165.961,94.8109 166.294,97.1442 165.5,99.5C 163.772,97.7745 161.772,96.4411 159.5,95.5C 156.991,96.9213 154.657,98.5879 152.5,100.5C 152.424,97.9783 153.091,95.3117 154.5,92.5C 153.089,90.086 151.089,88.4194 148.5,87.5C 151.167,86.8333 153.833,86.1667 156.5,85.5C 158.5,76.1667 160.5,76.1667 162.5,85.5 Z"/></g>
<g><path style="opacity:1" fill="#8281a2" d="M 55.5,85.5 C 58.5719,85.1826 61.5719,85.5159 64.5,86.5C 64.3764,87.1067 64.0431,87.44 63.5,87.5C 60.8333,86.8333 58.1667,86.1667 55.5,85.5 Z"/></g>
<g><path style="opacity:1" fill="#8180a1" d="M 103.5,85.5 C 100.833,86.1667 98.1667,86.8333 95.5,87.5C 94.9569,87.44 94.6236,87.1067 94.5,86.5C 97.4281,85.5159 100.428,85.1826 103.5,85.5 Z"/></g>
<g><path style="opacity:1" fill="#7b7a9d" d="M 156.5,85.5 C 153.833,86.1667 151.167,86.8333 148.5,87.5C 147.957,87.44 147.624,87.1067 147.5,86.5C 150.428,85.5159 153.428,85.1826 156.5,85.5 Z"/></g>
<g><path style="opacity:1" fill="#7c7b9d" d="M 162.5,85.5 C 165.572,85.1826 168.572,85.5159 171.5,86.5C 171.376,87.1067 171.043,87.44 170.5,87.5C 167.833,86.8333 165.167,86.1667 162.5,85.5 Z"/></g>
<g><path style="opacity:1" fill="#8281a2" d="M 215.5,85.5 C 218.572,85.1826 221.572,85.5159 224.5,86.5C 224.376,87.1067 224.043,87.44 223.5,87.5C 220.833,86.8333 218.167,86.1667 215.5,85.5 Z"/></g>
<g><path style="opacity:1" fill="#8180a1" d="M 263.5,85.5 C 260.833,86.1667 258.167,86.8333 255.5,87.5C 254.957,87.44 254.624,87.1067 254.5,86.5C 257.428,85.5159 260.428,85.1826 263.5,85.5 Z"/></g>
<g><path style="opacity:1" fill="#fdfafb" d="M 319.5,96.5 C 479.5,96.5 639.5,96.5 799.5,96.5C 799.5,107.5 799.5,118.5 799.5,129.5C 639.5,129.5 479.5,129.5 319.5,129.5C 319.5,118.5 319.5,107.5 319.5,96.5 Z"/></g>
<g><path style="opacity:1" fill="#eeeef2" d="M 132.5,100.5 C 134.267,102.792 135.267,105.458 135.5,108.5C 138.518,108.335 141.518,108.502 144.5,109C 141.948,110.771 139.615,112.771 137.5,115C 139.043,117.33 139.543,119.83 139,122.5C 137.155,120.913 135.155,119.579 133,118.5C 130.447,119.223 128.28,120.556 126.5,122.5C 126.167,122.167 125.833,121.833 125.5,121.5C 126.96,118.971 127.46,116.304 127,113.5C 124.833,112 122.667,110.5 120.5,109C 123.817,108.502 127.15,108.335 130.5,108.5C 130.56,105.659 131.226,102.993 132.5,100.5 Z"/></g>
<g><path style="opacity:1" fill="#eeeef2" d="M 292.5,100.5 C 294.267,102.792 295.267,105.458 295.5,108.5C 298.518,108.335 301.518,108.502 304.5,109C 301.948,110.771 299.615,112.771 297.5,115C 299.043,117.33 299.543,119.83 299,122.5C 297.155,120.913 295.155,119.579 293,118.5C 290.447,119.223 288.28,120.556 286.5,122.5C 286.167,122.167 285.833,121.833 285.5,121.5C 286.96,118.971 287.46,116.304 287,113.5C 284.833,112 282.667,110.5 280.5,109C 283.817,108.502 287.15,108.335 290.5,108.5C 290.56,105.659 291.226,102.993 292.5,100.5 Z"/></g>
<g><path style="opacity:1" fill="#eeeef2" d="M 25.5,100.5 C 27.6545,102.617 28.6545,105.284 28.5,108.5C 31.8499,108.335 35.1832,108.502 38.5,109C 36.3333,110.5 34.1667,112 32,113.5C 31.5403,116.304 32.0403,118.971 33.5,121.5C 33.1667,121.833 32.8333,122.167 32.5,122.5C 30.72,120.556 28.5533,119.223 26,118.5C 23.8448,119.579 21.8448,120.913 20,122.5C 19.4574,119.83 19.9574,117.33 21.5,115C 19.3853,112.771 17.052,110.771 14.5,109C 17.4816,108.502 20.4816,108.335 23.5,108.5C 23.9628,105.779 24.6295,103.112 25.5,100.5 Z"/></g>
<g><path style="opacity:1" fill="#eeeef2" d="M 185.5,100.5 C 187.655,102.617 188.655,105.284 188.5,108.5C 191.85,108.335 195.183,108.502 198.5,109C 196.333,110.5 194.167,112 192,113.5C 191.54,116.304 192.04,118.971 193.5,121.5C 193.167,121.833 192.833,122.167 192.5,122.5C 190.72,120.556 188.553,119.223 186,118.5C 183.845,119.579 181.845,120.913 180,122.5C 179.457,119.83 179.957,117.33 181.5,115C 179.385,112.771 177.052,110.771 174.5,109C 177.482,108.502 180.482,108.335 183.5,108.5C 183.963,105.779 184.629,103.112 185.5,100.5 Z"/></g>
<g><path style="opacity:1" fill="#ededf1" d="M 78.5,100.5 C 80.5549,102.234 81.8882,104.567 82.5,107.5C 85.4465,108.321 88.4465,108.821 91.5,109C 88.8519,110.649 86.5186,112.649 84.5,115C 85.6542,117.437 86.1542,119.937 86,122.5C 83.9417,120.932 81.7751,119.598 79.5,118.5C 77.2249,119.598 75.0583,120.932 73,122.5C 72.8458,119.937 73.3458,117.437 74.5,115C 72.4814,112.649 70.1481,110.649 67.5,109C 74.5648,110.179 78.2315,107.346 78.5,100.5 Z"/></g>
<g><path style="opacity:1" fill="#ededf1" d="M 238.5,100.5 C 240.555,102.234 241.888,104.567 242.5,107.5C 245.447,108.321 248.447,108.821 251.5,109C 248.852,110.649 246.519,112.649 244.5,115C 245.654,117.437 246.154,119.937 246,122.5C 243.942,120.932 241.775,119.598 239.5,118.5C 237.225,119.598 235.058,120.932 233,122.5C 232.846,119.937 233.346,117.437 234.5,115C 232.481,112.649 230.148,110.649 227.5,109C 234.565,110.179 238.231,107.346 238.5,100.5 Z"/></g>
<g><path style="opacity:1" fill="#f1f1f5" d="M 52.5,123.5 C 54.2671,125.792 55.2671,128.458 55.5,131.5C 58.5184,131.335 61.5184,131.502 64.5,132C 62.0232,133.643 59.6898,135.476 57.5,137.5C 61.9999,146.828 60.4999,147.828 53,140.5C 50.6667,142.167 48.3333,143.833 46,145.5C 45.8458,142.937 46.3458,140.437 47.5,138C 45.9928,135.566 43.9928,133.566 41.5,132C 44.4816,131.502 47.4816,131.335 50.5,131.5C 50.5597,128.659 51.2264,125.993 52.5,123.5 Z"/></g>
<g><path style="opacity:1" fill="#f2f2f5" d="M 105.5,123.5 C 107.655,125.617 108.655,128.284 108.5,131.5C 111.518,131.335 114.518,131.502 117.5,132C 115.759,133.62 113.925,135.12 112,136.5C 112.333,139.5 112.667,142.5 113,145.5C 110.667,143.833 108.333,142.167 106,140.5C 98.5001,147.828 97.0001,146.828 101.5,137.5C 99.3345,135.507 97.0011,133.673 94.5,132C 97.4816,131.502 100.482,131.335 103.5,131.5C 103.963,128.779 104.629,126.112 105.5,123.5 Z"/></g>
<g><path style="opacity:1" fill="#f1f1f5" d="M 212.5,123.5 C 214.267,125.792 215.267,128.458 215.5,131.5C 218.518,131.335 221.518,131.502 224.5,132C 222.023,133.643 219.69,135.476 217.5,137.5C 222,146.828 220.5,147.828 213,140.5C 210.667,142.167 208.333,143.833 206,145.5C 205.846,142.937 206.346,140.437 207.5,138C 205.993,135.566 203.993,133.566 201.5,132C 204.482,131.502 207.482,131.335 210.5,131.5C 210.56,128.659 211.226,125.993 212.5,123.5 Z"/></g>
<g><path style="opacity:1" fill="#f2f2f5" d="M 265.5,123.5 C 267.655,125.617 268.655,128.284 268.5,131.5C 271.518,131.335 274.518,131.502 277.5,132C 275.759,133.62 273.925,135.12 272,136.5C 272.333,139.5 272.667,142.5 273,145.5C 270.667,143.833 268.333,142.167 266,140.5C 258.5,147.828 257,146.828 261.5,137.5C 259.334,135.507 257.001,133.673 254.5,132C 257.482,131.502 260.482,131.335 263.5,131.5C 263.963,128.779 264.629,126.112 265.5,123.5 Z"/></g>
<g><path style="opacity:1" fill="#f3f2f6" d="M 158.5,123.5 C 160.555,125.234 161.888,127.567 162.5,130.5C 165.447,131.321 168.447,131.821 171.5,132C 169.333,133.5 167.167,135 165,136.5C 165.623,139.437 165.957,142.437 166,145.5C 163.743,143.954 161.576,142.288 159.5,140.5C 157.424,142.288 155.257,143.954 153,145.5C 152.54,142.696 153.04,140.029 154.5,137.5C 152.334,135.507 150.001,133.673 147.5,132C 154.565,133.179 158.231,130.346 158.5,123.5 Z"/></g>
<g><path style="opacity:1" fill="#b22234" d="M 319.5,129.5 C 479.5,129.5 639.5,129.5 799.5,129.5C 799.5,140.167 799.5,150.833 799.5,161.5C 639.5,161.5 479.5,161.5 319.5,161.5C 319.5,150.833 319.5,140.167 319.5,129.5 Z"/></g>
<g><path style="opacity:1" fill="#f3f3f6" d="M 15.5,155.5 C 18.1667,154.833 20.8333,154.167 23.5,153.5C 25.5512,143.116 27.2179,143.45 28.5,154.5C 31.5184,154.335 34.5184,154.502 37.5,155C 34.9979,156.337 32.9979,158.171 31.5,160.5C 32.5533,163.131 33.0533,165.798 33,168.5C 31.1038,166.47 28.9371,164.803 26.5,163.5C 23.864,164.971 21.364,166.637 19,168.5C 19.199,165.561 20.0323,162.728 21.5,160C 19.6491,158.248 17.6491,156.748 15.5,155.5 Z"/></g>
<g><path style="opacity:1" fill="#f4f4f7" d="M 135.5,153.5 C 138.167,154.167 140.833,154.833 143.5,155.5C 141.351,156.748 139.351,158.248 137.5,160C 138.968,162.728 139.801,165.561 140,168.5C 137.656,166.819 135.323,165.152 133,163.5C 130.332,164.67 127.998,166.337 126,168.5C 125.947,165.798 126.447,163.131 127.5,160.5C 126.002,158.171 124.002,156.337 121.5,155C 124.482,154.502 127.482,154.335 130.5,154.5C 131.782,143.45 133.449,143.116 135.5,153.5 Z"/></g>
<g><path style="opacity:1" fill="#f3f3f6" d="M 175.5,155.5 C 178.167,154.833 180.833,154.167 183.5,153.5C 185.551,143.116 187.218,143.45 188.5,154.5C 191.518,154.335 194.518,154.502 197.5,155C 194.998,156.337 192.998,158.171 191.5,160.5C 192.553,163.131 193.053,165.798 193,168.5C 191.104,166.47 188.937,164.803 186.5,163.5C 183.864,164.971 181.364,166.637 179,168.5C 179.199,165.561 180.032,162.728 181.5,160C 179.649,158.248 177.649,156.748 175.5,155.5 Z"/></g>
<g><path style="opacity:1" fill="#f4f4f7" d="M 295.5,153.5 C 298.167,154.167 300.833,154.833 303.5,155.5C 301.351,156.748 299.351,158.248 297.5,160C 298.968,162.728 299.801,165.561 300,168.5C 297.656,166.819 295.323,165.152 293,163.5C 290.332,164.67 287.998,166.337 286,168.5C 285.947,165.798 286.447,163.131 287.5,160.5C 286.002,158.171 284.002,156.337 281.5,155C 284.482,154.502 287.482,154.335 290.5,154.5C 291.782,143.45 293.449,143.116 295.5,153.5 Z"/></g>
<g><path style="opacity:1" fill="#f2f2f6" d="M 82.5,153.5 C 85.1667,154.167 87.8333,154.833 90.5,155.5C 88.1217,156.692 86.1217,158.359 84.5,160.5C 85.961,162.811 86.2943,165.144 85.5,167.5C 83.7721,165.774 81.7721,164.441 79.5,163.5C 76.9906,164.921 74.6572,166.588 72.5,168.5C 72.4242,165.978 73.0909,163.312 74.5,160.5C 73.0892,158.086 71.0892,156.419 68.5,155.5C 71.1667,154.833 73.8333,154.167 76.5,153.5C 78.5,144.167 80.5,144.167 82.5,153.5 Z"/></g>
<g><path style="opacity:1" fill="#f2f2f6" d="M 242.5,153.5 C 245.167,154.167 247.833,154.833 250.5,155.5C 248.122,156.692 246.122,158.359 244.5,160.5C 245.961,162.811 246.294,165.144 245.5,167.5C 243.772,165.774 241.772,164.441 239.5,163.5C 236.991,164.921 234.657,166.588 232.5,168.5C 232.424,165.978 233.091,163.312 234.5,160.5C 233.089,158.086 231.089,156.419 228.5,155.5C 231.167,154.833 233.833,154.167 236.5,153.5C 238.5,144.167 240.5,144.167 242.5,153.5 Z"/></g>
<g><path style="opacity:1" fill="#8180a1" d="M 23.5,153.5 C 20.8333,154.167 18.1667,154.833 15.5,155.5C 14.9569,155.44 14.6236,155.107 14.5,154.5C 17.4281,153.516 20.4281,153.183 23.5,153.5 Z"/></g>
<g><path style="opacity:1" fill="#7b7a9d" d="M 76.5,153.5 C 73.8333,154.167 71.1667,154.833 68.5,155.5C 67.9569,155.44 67.6236,155.107 67.5,154.5C 70.4281,153.516 73.4281,153.183 76.5,153.5 Z"/></g>
<g><path style="opacity:1" fill="#7c7b9d" d="M 82.5,153.5 C 85.5719,153.183 88.5719,153.516 91.5,154.5C 91.3764,155.107 91.0431,155.44 90.5,155.5C 87.8333,154.833 85.1667,154.167 82.5,153.5 Z"/></g>
<g><path style="opacity:1" fill="#8281a2" d="M 135.5,153.5 C 138.572,153.183 141.572,153.516 144.5,154.5C 144.376,155.107 144.043,155.44 143.5,155.5C 140.833,154.833 138.167,154.167 135.5,153.5 Z"/></g>
<g><path style="opacity:1" fill="#8180a1" d="M 183.5,153.5 C 180.833,154.167 178.167,154.833 175.5,155.5C 174.957,155.44 174.624,155.107 174.5,154.5C 177.428,153.516 180.428,153.183 183.5,153.5 Z"/></g>
<g><path style="opacity:1" fill="#7b7a9d" d="M 236.5,153.5 C 233.833,154.167 231.167,154.833 228.5,155.5C 227.957,155.44 227.624,155.107 227.5,154.5C 230.428,153.516 233.428,153.183 236.5,153.5 Z"/></g>
<g><path style="opacity:1" fill="#7c7b9d" d="M 242.5,153.5 C 245.572,153.183 248.572,153.516 251.5,154.5C 251.376,155.107 251.043,155.44 250.5,155.5C 247.833,154.833 245.167,154.167 242.5,153.5 Z"/></g>
<g><path style="opacity:1" fill="#8281a2" d="M 295.5,153.5 C 298.572,153.183 301.572,153.516 304.5,154.5C 304.376,155.107 304.043,155.44 303.5,155.5C 300.833,154.833 298.167,154.167 295.5,153.5 Z"/></g>
<g><path style="opacity:1" fill="#fefffe" d="M 319.5,161.5 C 479.5,161.5 639.5,161.5 799.5,161.5C 799.5,172.167 799.5,182.833 799.5,193.5C 639.5,193.5 479.5,193.5 319.5,193.5C 319.5,182.833 319.5,172.167 319.5,161.5 Z"/></g>
<g><path style="opacity:1" fill="#eeeef2" d="M 52.5,168.5 C 54.2671,170.792 55.2671,173.458 55.5,176.5C 58.5184,176.335 61.5184,176.502 64.5,177C 61.948,178.771 59.6147,180.771 57.5,183C 59.0426,185.33 59.5426,187.83 59,190.5C 57.1552,188.913 55.1552,187.579 53,186.5C 50.4467,187.223 48.28,188.556 46.5,190.5C 46.1667,190.167 45.8333,189.833 45.5,189.5C 46.9597,186.971 47.4597,184.304 47,181.5C 44.8333,180 42.6667,178.5 40.5,177C 43.8168,176.502 47.1501,176.335 50.5,176.5C 50.5597,173.659 51.2264,170.993 52.5,168.5 Z"/></g>
<g><path style="opacity:1" fill="#eeeef2" d="M 105.5,168.5 C 107.655,170.617 108.655,173.284 108.5,176.5C 111.85,176.335 115.183,176.502 118.5,177C 116.333,178.5 114.167,180 112,181.5C 111.54,184.304 112.04,186.971 113.5,189.5C 113.167,189.833 112.833,190.167 112.5,190.5C 110.72,188.556 108.553,187.223 106,186.5C 103.845,187.579 101.845,188.913 100,190.5C 99.4574,187.83 99.9574,185.33 101.5,183C 99.3853,180.771 97.052,178.771 94.5,177C 97.4816,176.502 100.482,176.335 103.5,176.5C 103.963,173.779 104.629,171.112 105.5,168.5 Z"/></g>
<g><path style="opacity:1" fill="#eeeef2" d="M 212.5,168.5 C 214.267,170.792 215.267,173.458 215.5,176.5C 218.518,176.335 221.518,176.502 224.5,177C 221.948,178.771 219.615,180.771 217.5,183C 219.043,185.33 219.543,187.83 219,190.5C 217.155,188.913 215.155,187.579 213,186.5C 210.447,187.223 208.28,188.556 206.5,190.5C 206.167,190.167 205.833,189.833 205.5,189.5C 206.96,186.971 207.46,184.304 207,181.5C 204.833,180 202.667,178.5 200.5,177C 203.817,176.502 207.15,176.335 210.5,176.5C 210.56,173.659 211.226,170.993 212.5,168.5 Z"/></g>
<g><path style="opacity:1" fill="#eeeef2" d="M 265.5,168.5 C 267.655,170.617 268.655,173.284 268.5,176.5C 271.85,176.335 275.183,176.502 278.5,177C 276.333,178.5 274.167,180 272,181.5C 271.54,184.304 272.04,186.971 273.5,189.5C 273.167,189.833 272.833,190.167 272.5,190.5C 270.72,188.556 268.553,187.223 266,186.5C 263.845,187.579 261.845,188.913 260,190.5C 259.457,187.83 259.957,185.33 261.5,183C 259.385,180.771 257.052,178.771 254.5,177C 257.482,176.502 260.482,176.335 263.5,176.5C 263.963,173.779 264.629,171.112 265.5,168.5 Z"/></g>
<g><path style="opacity:1" fill="#ededf1" d="M 158.5,168.5 C 160.555,170.234 161.888,172.567 162.5,175.5C 165.447,176.321 168.447,176.821 171.5,177C 168.852,178.649 166.519,180.649 164.5,183C 165.654,185.437 166.154,187.937 166,190.5C 163.942,188.932 161.775,187.598 159.5,186.5C 157.225,187.598 155.058,188.932 153,190.5C 152.846,187.937 153.346,185.437 154.5,183C 152.481,180.649 150.148,178.649 147.5,177C 154.565,178.179 158.231,175.346 158.5,168.5 Z"/></g>
<g><path style="opacity:1" fill="#f2f2f5" d="M 25.5,191.5 C 27.6545,193.617 28.6545,196.284 28.5,199.5C 31.5184,199.335 34.5184,199.502 37.5,200C 35.7585,201.62 33.9252,203.12 32,204.5C 32.3333,207.5 32.6667,210.5 33,213.5C 30.6667,211.833 28.3333,210.167 26,208.5C 18.5001,215.828 17.0001,214.828 21.5,205.5C 19.3345,203.507 17.0011,201.673 14.5,200C 17.4816,199.502 20.4816,199.335 23.5,199.5C 23.9628,196.779 24.6295,194.112 25.5,191.5 Z"/></g>
<g><path style="opacity:1" fill="#f1f1f5" d="M 132.5,191.5 C 134.267,193.792 135.267,196.458 135.5,199.5C 138.518,199.335 141.518,199.502 144.5,200C 142.023,201.643 139.69,203.476 137.5,205.5C 142,214.828 140.5,215.828 133,208.5C 130.667,210.167 128.333,211.833 126,213.5C 125.846,210.937 126.346,208.437 127.5,206C 125.993,203.566 123.993,201.566 121.5,200C 124.482,199.502 127.482,199.335 130.5,199.5C 130.56,196.659 131.226,193.993 132.5,191.5 Z"/></g>
<g><path style="opacity:1" fill="#f2f2f5" d="M 185.5,191.5 C 187.655,193.617 188.655,196.284 188.5,199.5C 191.518,199.335 194.518,199.502 197.5,200C 195.759,201.62 193.925,203.12 192,204.5C 192.333,207.5 192.667,210.5 193,213.5C 190.667,211.833 188.333,210.167 186,208.5C 178.5,215.828 177,214.828 181.5,205.5C 179.334,203.507 177.001,201.673 174.5,200C 177.482,199.502 180.482,199.335 183.5,199.5C 183.963,196.779 184.629,194.112 185.5,191.5 Z"/></g>
<g><path style="opacity:1" fill="#f1f1f5" d="M 292.5,191.5 C 294.267,193.792 295.267,196.458 295.5,199.5C 298.518,199.335 301.518,199.502 304.5,200C 302.023,201.643 299.69,203.476 297.5,205.5C 302,214.828 300.5,215.828 293,208.5C 290.667,210.167 288.333,211.833 286,213.5C 285.846,210.937 286.346,208.437 287.5,206C 285.993,203.566 283.993,201.566 281.5,200C 284.482,199.502 287.482,199.335 290.5,199.5C 290.56,196.659 291.226,193.993 292.5,191.5 Z"/></g>
<g><path style="opacity:1" fill="#f3f3f6" d="M 78.5,191.5 C 80.5549,193.234 81.8882,195.567 82.5,198.5C 85.4465,199.321 88.4465,199.821 91.5,200C 89.3333,201.5 87.1667,203 85,204.5C 85.6232,207.437 85.9565,210.437 86,213.5C 83.7432,211.954 81.5765,210.288 79.5,208.5C 77.4235,210.288 75.2568,211.954 73,213.5C 73.0435,210.437 73.3768,207.437 74,204.5C 71.8333,203 69.6667,201.5 67.5,200C 74.5648,201.179 78.2315,198.346 78.5,191.5 Z"/></g>
<g><path style="opacity:1" fill="#f3f3f6" d="M 238.5,191.5 C 240.555,193.234 241.888,195.567 242.5,198.5C 245.447,199.321 248.447,199.821 251.5,200C 249.333,201.5 247.167,203 245,204.5C 245.623,207.437 245.957,210.437 246,213.5C 243.743,211.954 241.576,210.288 239.5,208.5C 237.424,210.288 235.257,211.954 233,213.5C 233.043,210.437 233.377,207.437 234,204.5C 231.833,203 229.667,201.5 227.5,200C 234.565,201.179 238.231,198.346 238.5,191.5 Z"/></g>
<g><path style="opacity:1" fill="#b32737" d="M 319.5,193.5 C 479.5,193.5 639.5,193.5 799.5,193.5C 799.5,204.5 799.5,215.5 799.5,226.5C 639.5,226.5 479.5,226.5 319.5,226.5C 319.5,215.5 319.5,204.5 319.5,193.5 Z"/></g>
<g><path style="opacity:1" fill="#fefffe" d="M -0.5,226.5 C 106.167,226.5 212.833,226.5 319.5,226.5C 479.5,226.5 639.5,226.5 799.5,226.5C 799.5,237.167 799.5,247.833 799.5,258.5C 532.833,258.5 266.167,258.5 -0.5,258.5C -0.5,247.833 -0.5,237.167 -0.5,226.5 Z"/></g>
<g><path style="opacity:1" fill="#b22234" d="M -0.5,258.5 C 266.167,258.5 532.833,258.5 799.5,258.5C 799.5,269.167 799.5,279.833 799.5,290.5C 532.833,290.5 266.167,290.5 -0.5,290.5C -0.5,279.833 -0.5,269.167 -0.5,258.5 Z"/></g>
<g><path style="opacity:1" fill="#fdfafb" d="M -0.5,290.5 C 266.167,290.5 532.833,290.5 799.5,290.5C 799.5,301.5 799.5,312.5 799.5,323.5C 532.833,323.5 266.167,323.5 -0.5,323.5C -0.5,312.5 -0.5,301.5 -0.5,290.5 Z"/></g>
<g><path style="opacity:1" fill="#b12233" d="M -0.5,323.5 C 266.167,323.5 532.833,323.5 799.5,323.5C 799.5,334.167 799.5,344.833 799.5,355.5C 532.833,355.5 266.167,355.5 -0.5,355.5C -0.5,344.833 -0.5,334.167 -0.5,323.5 Z"/></g>
<g><path style="opacity:1" fill="#fdfafb" d="M -0.5,355.5 C 266.167,355.5 532.833,355.5 799.5,355.5C 799.5,366.5 799.5,377.5 799.5,388.5C 532.833,388.5 266.167,388.5 -0.5,388.5C -0.5,377.5 -0.5,366.5 -0.5,355.5 Z"/></g>
<g><path style="opacity:1" fill="#b12233" d="M -0.5,388.5 C 266.167,388.5 532.833,388.5 799.5,388.5C 799.5,399.167 799.5,409.833 799.5,420.5C 532.833,420.5 266.167,420.5 -0.5,420.5C -0.5,409.833 -0.5,399.167 -0.5,388.5 Z"/></g>
</svg>
